<?xml version="1.0" encoding="utf-8" ?>
<!DOCTYPE svg PUBLIC "-//W3C//DTD SVG 1.1//EN" "http://www.w3.org/Graphics/SVG/1.1/DTD/svg11.dtd">
<svg width="229.301" height="74.451" viewBox="0 0 229.301 74.451" xmlns="http://www.w3.org/2000/svg"><g id="svgGroup" stroke-linecap="round" fill-rule="evenodd" font-size="9pt" stroke="#000" stroke-width="0.25mm" fill="#000" style="stroke:#000;stroke-width:0.25mm;fill:#000"><path d="M 55.501 55.8 L 62.201 62.85 Q 57.801 68.6 51.176 71.525 Q 44.551 74.45 35.501 74.45 A 41.8 41.8 0 0 1 27.197 73.659 A 33.368 33.368 0 0 1 20.626 71.625 A 32.541 32.541 0 0 1 10.802 65.182 A 31.037 31.037 0 0 1 9.476 63.825 A 33.957 33.957 0 0 1 2.934 53.302 A 39.284 39.284 0 0 1 2.451 52.025 A 42.135 42.135 0 0 1 0.118 40.644 A 49.866 49.866 0 0 1 0.001 37.2 A 41.365 41.365 0 0 1 1.15 27.302 A 35.956 35.956 0 0 1 2.801 22.225 Q 5.601 15.4 10.626 10.45 Q 15.651 5.5 22.651 2.75 A 39.853 39.853 0 0 1 33.462 0.218 A 48.441 48.441 0 0 1 38.101 0 A 41.327 41.327 0 0 1 43.514 0.343 A 35.474 35.474 0 0 1 45.826 0.725 A 38.97 38.97 0 0 1 50.996 2.122 A 34.48 34.48 0 0 1 52.601 2.725 A 32.246 32.246 0 0 1 57.73 5.339 A 29.578 29.578 0 0 1 58.401 5.775 A 28.515 28.515 0 0 1 62.311 8.907 A 25.835 25.835 0 0 1 63.101 9.7 L 57.401 17.35 A 7.214 7.214 0 0 1 56.194 18.553 A 8.021 8.021 0 0 1 56.101 18.625 Q 55.504 19.082 54.529 19.176 A 5.529 5.529 0 0 1 54.001 19.2 Q 53.101 19.2 52.301 18.8 A 16.436 16.436 0 0 1 51.476 18.356 A 21.446 21.446 0 0 1 50.601 17.825 Q 49.701 17.25 48.626 16.575 Q 47.584 15.921 46.167 15.361 A 20.824 20.824 0 0 0 46.076 15.325 A 17.354 17.354 0 0 0 44.583 14.825 Q 43.789 14.595 42.887 14.404 A 29.314 29.314 0 0 0 42.626 14.35 A 18.629 18.629 0 0 0 40.768 14.077 Q 39.81 13.982 38.733 13.958 A 33.264 33.264 0 0 0 38.001 13.95 Q 33.401 13.95 29.601 15.575 Q 25.801 17.2 23.076 20.225 A 20.577 20.577 0 0 0 19.72 25.356 A 25.001 25.001 0 0 0 18.826 27.55 A 26.22 26.22 0 0 0 17.524 33.258 A 33.644 33.644 0 0 0 17.301 37.2 Q 17.301 42.8 18.826 47.15 A 24.454 24.454 0 0 0 20.756 51.384 A 19.478 19.478 0 0 0 22.976 54.475 Q 25.601 57.45 29.101 59 Q 32.601 60.55 36.601 60.55 A 41.178 41.178 0 0 0 38.801 60.494 A 31.239 31.239 0 0 0 40.801 60.325 A 18.301 18.301 0 0 0 43.23 59.876 A 15.577 15.577 0 0 0 44.326 59.55 Q 45.951 59 47.426 58.125 A 18.993 18.993 0 0 0 49.232 56.901 A 23.686 23.686 0 0 0 50.401 55.95 Q 51.001 55.45 51.701 55.125 Q 52.401 54.8 53.151 54.8 Q 53.751 54.8 54.351 55.025 A 2.874 2.874 0 0 1 55.01 55.381 A 3.895 3.895 0 0 1 55.501 55.8 Z M 197.801 73.65 L 182.301 73.65 L 182.301 21.8 L 191.901 21.8 Q 193.351 21.8 194.326 22.45 A 3.251 3.251 0 0 1 195.447 23.755 A 4.405 4.405 0 0 1 195.701 24.4 L 196.601 27.4 Q 198.101 26 199.701 24.8 Q 201.301 23.6 203.126 22.775 A 19.848 19.848 0 0 1 206.289 21.666 A 22.664 22.664 0 0 1 207.076 21.475 A 19.609 19.609 0 0 1 209.878 21.067 A 24.21 24.21 0 0 1 211.701 21 A 20.835 20.835 0 0 1 215.677 21.363 A 16.073 16.073 0 0 1 219.226 22.475 Q 222.501 23.95 224.751 26.575 A 17.177 17.177 0 0 1 227.659 31.447 A 20.449 20.449 0 0 1 228.151 32.825 A 24.712 24.712 0 0 1 229.21 38.359 A 29.58 29.58 0 0 1 229.301 40.7 L 229.301 73.65 L 213.801 73.65 L 213.801 40.7 A 13.315 13.315 0 0 0 213.612 38.387 Q 213.226 36.203 212.051 34.775 A 5.631 5.631 0 0 0 208.864 32.858 A 8.749 8.749 0 0 0 206.901 32.65 Q 204.351 32.65 202.101 33.75 Q 199.851 34.85 197.801 36.7 L 197.801 73.65 Z M 169.901 50.5 L 140.001 50.5 A 24.068 24.068 0 0 0 140.662 54.044 Q 141.701 57.868 143.951 59.925 A 11.006 11.006 0 0 0 149.755 62.662 A 15.269 15.269 0 0 0 152.201 62.85 Q 154.5 62.85 156.255 62.379 A 10.465 10.465 0 0 0 156.851 62.2 Q 158.801 61.55 160.326 60.75 Q 161.851 59.95 163.126 59.3 Q 164.401 58.65 165.801 58.65 A 4.029 4.029 0 0 1 166.966 58.81 A 3.015 3.015 0 0 1 168.601 60 L 173.101 65.55 A 24.499 24.499 0 0 1 169.872 68.653 A 20.847 20.847 0 0 1 167.926 70.025 A 27.032 27.032 0 0 1 162.591 72.6 A 25.127 25.127 0 0 1 162.226 72.725 Q 159.301 73.7 156.376 74.075 A 46.161 46.161 0 0 1 152.484 74.414 A 39.335 39.335 0 0 1 150.801 74.45 A 29.662 29.662 0 0 1 142.428 73.29 A 27.415 27.415 0 0 1 140.576 72.675 Q 135.801 70.9 132.226 67.4 A 23.818 23.818 0 0 1 127.707 61.194 A 29.016 29.016 0 0 1 126.576 58.7 Q 124.516 53.538 124.501 46.701 A 45.811 45.811 0 0 1 124.501 46.6 Q 124.501 41.4 126.276 36.75 Q 128.051 32.1 131.376 28.6 Q 134.701 25.1 139.426 23.05 A 24.646 24.646 0 0 1 146.155 21.242 A 31.199 31.199 0 0 1 150.101 21 A 28.848 28.848 0 0 1 155.908 21.564 A 24.152 24.152 0 0 1 159.526 22.6 A 20.57 20.57 0 0 1 166.486 26.875 A 19.947 19.947 0 0 1 166.876 27.25 A 20.637 20.637 0 0 1 170.981 33.114 A 24.541 24.541 0 0 1 171.676 34.725 A 24.903 24.903 0 0 1 173.137 40.554 A 32.282 32.282 0 0 1 173.401 44.75 A 34.109 34.109 0 0 1 173.386 45.78 Q 173.354 46.844 173.251 47.6 Q 173.144 48.384 172.91 48.94 A 3.015 3.015 0 0 1 172.701 49.35 A 2.204 2.204 0 0 1 172.146 49.968 A 2.051 2.051 0 0 1 171.626 50.25 A 3.545 3.545 0 0 1 171.041 50.407 Q 170.744 50.462 170.397 50.485 A 7.71 7.71 0 0 1 169.901 50.5 Z M 99.471 21.618 A 32.624 32.624 0 0 0 93.001 21 A 35.237 35.237 0 0 0 89.343 21.185 A 28.433 28.433 0 0 0 82.176 22.85 A 27.365 27.365 0 0 0 81.872 22.967 A 23.964 23.964 0 0 0 73.776 28.15 A 22.317 22.317 0 0 0 72.113 29.967 A 24.152 24.152 0 0 0 68.326 36.525 A 26.9 26.9 0 0 0 66.944 41.411 A 33.822 33.822 0 0 0 66.401 47.6 A 36.035 36.035 0 0 0 66.649 51.898 A 28.353 28.353 0 0 0 68.326 58.775 A 27.214 27.214 0 0 0 68.832 59.995 A 23.316 23.316 0 0 0 73.776 67.225 A 23.407 23.407 0 0 0 74.278 67.706 A 24.27 24.27 0 0 0 82.176 72.575 A 26.978 26.978 0 0 0 86.647 73.857 A 32.779 32.779 0 0 0 93.001 74.45 A 34.27 34.27 0 0 0 96.586 74.267 A 27.863 27.863 0 0 0 103.751 72.575 Q 108.601 70.7 112.076 67.225 A 22.505 22.505 0 0 0 114.096 64.907 A 25.026 25.026 0 0 0 117.476 58.775 A 27.4 27.4 0 0 0 118.857 53.842 A 34.413 34.413 0 0 0 119.401 47.6 A 35.428 35.428 0 0 0 119.152 43.338 A 27.839 27.839 0 0 0 117.476 36.525 A 27.459 27.459 0 0 0 116.97 35.317 A 23.488 23.488 0 0 0 112.076 28.15 A 22.671 22.671 0 0 0 110.956 27.111 A 23.873 23.873 0 0 0 103.751 22.85 A 26.975 26.975 0 0 0 99.471 21.618 Z M 93.001 62.95 A 11.936 11.936 0 0 0 96.138 62.563 A 8.06 8.06 0 0 0 100.876 59.175 A 12.371 12.371 0 0 0 102.352 55.995 Q 103.313 52.94 103.393 48.513 A 45.071 45.071 0 0 0 103.401 47.7 Q 103.401 40.6 101.254 36.858 A 9.993 9.993 0 0 0 100.876 36.25 A 8.215 8.215 0 0 0 95.206 32.68 A 12.911 12.911 0 0 0 93.001 32.5 A 12.691 12.691 0 0 0 89.851 32.866 A 8.159 8.159 0 0 0 84.951 36.25 Q 82.401 40 82.401 47.7 Q 82.401 54.85 84.599 58.616 A 10.068 10.068 0 0 0 84.951 59.175 A 8.27 8.27 0 0 0 90.435 62.714 A 13.198 13.198 0 0 0 93.001 62.95 Z M 140.151 41.5 L 159.501 41.5 Q 159.501 39.65 159.026 37.9 Q 158.551 36.15 157.476 34.775 Q 156.401 33.4 154.651 32.55 Q 152.901 31.7 150.401 31.7 Q 146.407 31.7 143.984 33.734 A 7.869 7.869 0 0 0 143.451 34.225 A 10.446 10.446 0 0 0 141.401 37.25 Q 140.794 38.571 140.414 40.189 A 20.839 20.839 0 0 0 140.151 41.5 Z" vector-effect="non-scaling-stroke"/></g></svg>
